<svg width="22" height="22" viewBox="0 0 22 22" fill="none" xmlns="http://www.w3.org/2000/svg">
<g opacity="0.5">
<path d="M2.75 4.58333C2.75 3.57081 3.57081 2.75 4.58333 2.75H17.4167C18.4292 2.75 19.25 3.57081 19.25 4.58333V17.4167C19.25 18.4292 18.4292 19.25 17.4167 19.25H4.58333C3.57081 19.25 2.75 18.4292 2.75 17.4167V4.58333ZM17.4167 4.58333H4.58333V17.4167H17.4167V4.58333ZM11 6.41667C11.5063 6.41667 11.9167 6.82707 11.9167 7.33333V14.6667C11.9167 15.1729 11.5063 15.5833 11 15.5833C10.4937 15.5833 10.0833 15.1729 10.0833 14.6667V7.33333C10.0833 6.82707 10.4937 6.41667 11 6.41667ZM14.6667 8.25C15.1729 8.25 15.5833 8.66041 15.5833 9.16667V14.6667C15.5833 15.1729 15.1729 15.5833 14.6667 15.5833C14.1604 15.5833 13.75 15.1729 13.75 14.6667V9.16667C13.75 8.66041 14.1604 8.25 14.6667 8.25ZM7.33333 10.0833C7.83959 10.0833 8.25 10.4937 8.25 11V14.6667C8.25 15.1729 7.83959 15.5833 7.33333 15.5833C6.82707 15.5833 6.41667 15.1729 6.41667 14.6667V11C6.41667 10.4937 6.82707 10.0833 7.33333 10.0833Z" fill="white"/>
</g>
</svg>
