<svg width="22" height="22" viewBox="0 0 22 22" fill="none" xmlns="http://www.w3.org/2000/svg">
<g opacity="0.5">
<path d="M10.0833 3.66668C8.05825 3.66668 6.41667 5.30829 6.41667 7.33334C6.41667 7.36306 6.4171 7.39409 6.41787 7.42706C6.42784 7.85334 6.14257 8.2302 5.72959 8.33632C4.54278 8.64129 3.66667 9.71953 3.66667 11C3.66667 12.5188 4.89791 13.75 6.41667 13.75H7.33333C7.83959 13.75 8.25 14.1604 8.25 14.6667C8.25 15.1729 7.83959 15.5833 7.33333 15.5833H6.41667C3.8854 15.5833 1.83333 13.5313 1.83333 11C1.83333 9.10935 2.97752 7.48776 4.61015 6.78676C4.88451 4.0058 7.23017 1.83334 10.0833 1.83334C12.1216 1.83334 13.8993 2.9419 14.8491 4.58631C17.8023 4.68255 20.1667 7.10683 20.1667 10.0833C20.1667 13.1209 17.7043 15.5833 14.6667 15.5833C14.1604 15.5833 13.75 15.1729 13.75 14.6667C13.75 14.1604 14.1604 13.75 14.6667 13.75C16.6917 13.75 18.3333 12.1084 18.3333 10.0833C18.3333 8.05829 16.6917 6.41668 14.6667 6.41668C14.5652 6.41668 14.465 6.42077 14.3658 6.42879C13.9745 6.46046 13.6065 6.23939 13.4506 5.87905C12.8868 4.57577 11.5902 3.66668 10.0833 3.66668ZM10.3518 8.5185C10.7098 8.16052 11.2902 8.16052 11.6482 8.5185L13.4815 10.3518C13.8395 10.7098 13.8395 11.2902 13.4815 11.6482C13.1235 12.0062 12.5431 12.0062 12.1852 11.6482L11.9167 11.3797V18.3333C11.9167 18.8396 11.5063 19.25 11 19.25C10.4937 19.25 10.0833 18.8396 10.0833 18.3333V11.3797L9.81485 11.6482C9.45687 12.0062 8.87646 12.0062 8.51848 11.6482C8.1605 11.2902 8.1605 10.7098 8.51848 10.3518L10.3518 8.5185Z" fill="white"/>
</g>
</svg>
