<svg width="22" height="22" viewBox="0 0 22 22" fill="none" xmlns="http://www.w3.org/2000/svg">
<g opacity="0.5">
<path d="M8.25 4.58333C7.74374 4.58333 7.33333 4.99374 7.33333 5.5C7.33333 6.00626 7.74374 6.41667 8.25 6.41667C8.75626 6.41667 9.16667 6.00626 9.16667 5.5C9.16667 4.99374 8.75626 4.58333 8.25 4.58333ZM5.65648 4.58333C6.034 3.51524 7.05263 2.75 8.25 2.75C9.44737 2.75 10.466 3.51524 10.8435 4.58333H17.4167C17.9229 4.58333 18.3333 4.99374 18.3333 5.5C18.3333 6.00626 17.9229 6.41667 17.4167 6.41667H10.8435C10.466 7.48476 9.44737 8.25 8.25 8.25C7.05263 8.25 6.034 7.48476 5.65648 6.41667H4.58333C4.07707 6.41667 3.66667 6.00626 3.66667 5.5C3.66667 4.99374 4.07707 4.58333 4.58333 4.58333H5.65648ZM13.75 10.0833C13.2437 10.0833 12.8333 10.4937 12.8333 11C12.8333 11.5063 13.2437 11.9167 13.75 11.9167C14.2563 11.9167 14.6667 11.5063 14.6667 11C14.6667 10.4937 14.2563 10.0833 13.75 10.0833ZM11.1565 10.0833C11.534 9.01524 12.5526 8.25 13.75 8.25C14.9474 8.25 15.966 9.01524 16.3435 10.0833H17.4167C17.9229 10.0833 18.3333 10.4937 18.3333 11C18.3333 11.5063 17.9229 11.9167 17.4167 11.9167H16.3435C15.966 12.9848 14.9474 13.75 13.75 13.75C12.5526 13.75 11.534 12.9848 11.1565 11.9167H4.58333C4.07707 11.9167 3.66667 11.5063 3.66667 11C3.66667 10.4937 4.07707 10.0833 4.58333 10.0833H11.1565ZM8.25 15.5833C7.74374 15.5833 7.33333 15.9937 7.33333 16.5C7.33333 17.0063 7.74374 17.4167 8.25 17.4167C8.75626 17.4167 9.16667 17.0063 9.16667 16.5C9.16667 15.9937 8.75626 15.5833 8.25 15.5833ZM5.65648 15.5833C6.034 14.5152 7.05263 13.75 8.25 13.75C9.44737 13.75 10.466 14.5152 10.8435 15.5833H17.4167C17.9229 15.5833 18.3333 15.9937 18.3333 16.5C18.3333 17.0063 17.9229 17.4167 17.4167 17.4167H10.8435C10.466 18.4848 9.44737 19.25 8.25 19.25C7.05263 19.25 6.034 18.4848 5.65648 17.4167H4.58333C4.07707 17.4167 3.66667 17.0063 3.66667 16.5C3.66667 15.9937 4.07707 15.5833 4.58333 15.5833H5.65648Z" fill="white"/>
</g>
</svg>
