<svg width="18" height="18" viewBox="0 0 18 18" fill="none" xmlns="http://www.w3.org/2000/svg">
<g opacity="0.5">
<path d="M14.5971 4.1818C14.0816 3.61948 13.1508 3.58483 12.5303 4.20533L6.45529 10.2803C6.29819 10.4374 6.29819 10.6376 6.45529 10.7947C6.6124 10.9518 6.81253 10.9518 6.96963 10.7947L11.9946 5.76967C12.2875 5.47678 12.7624 5.47678 13.0553 5.76967C13.3482 6.06257 13.3482 6.53744 13.0553 6.83033L8.03029 11.8553C7.2874 12.5982 6.13753 12.5982 5.39463 11.8553C4.65174 11.1124 4.65174 9.96257 5.39463 9.21967L11.4696 3.14467C12.6453 1.96903 14.5558 1.93077 15.6917 3.15616C16.8559 4.33247 16.8902 6.23368 15.6696 7.366L8.55529 14.4803C6.9124 16.1232 4.33753 16.1232 2.69463 14.4803C1.05174 12.8374 1.05174 10.2626 2.69463 8.61967L8.76963 2.54467C9.06252 2.25178 9.5374 2.25178 9.83029 2.54467C10.1232 2.83757 10.1232 3.31244 9.83029 3.60533L3.75529 9.68033C2.69819 10.7374 2.69819 12.3626 3.75529 13.4197C4.8124 14.4768 6.43753 14.4768 7.49463 13.4197L14.6196 6.29467C14.6273 6.28699 14.6352 6.27948 14.6432 6.27214C15.2055 5.75668 15.2401 4.82584 14.6196 4.20533C14.6119 4.19765 14.6044 4.18981 14.5971 4.1818Z" fill="#1C1D22"/>
</g>
</svg>
