<svg width="18" height="18" viewBox="0 0 18 18" fill="none" xmlns="http://www.w3.org/2000/svg">
<g opacity="0.5">
<path d="M1.5 4.5C1.5 3.67157 2.17157 3 3 3H15C15.8284 3 16.5 3.67157 16.5 4.5V12.75C16.5 13.5784 15.8284 14.25 15 14.25H11.5607L9.53033 16.2803C9.23744 16.5732 8.76256 16.5732 8.46967 16.2803L6.43934 14.25H3C2.17157 14.25 1.5 13.5784 1.5 12.75V4.5ZM15 4.5H3V12.75H6.75C6.94891 12.75 7.13968 12.829 7.28033 12.9697L9 14.6893L10.7197 12.9697C10.8603 12.829 11.0511 12.75 11.25 12.75H15V4.5ZM4.5 7.125C4.5 6.71079 4.83579 6.375 5.25 6.375H12.75C13.1642 6.375 13.5 6.71079 13.5 7.125C13.5 7.53921 13.1642 7.875 12.75 7.875H5.25C4.83579 7.875 4.5 7.53921 4.5 7.125ZM4.5 10.125C4.5 9.71079 4.83579 9.375 5.25 9.375H9.75C10.1642 9.375 10.5 9.71079 10.5 10.125C10.5 10.5392 10.1642 10.875 9.75 10.875H5.25C4.83579 10.875 4.5 10.5392 4.5 10.125Z" fill="#1C1D22"/>
</g>
</svg>
