<svg width="22" height="22" viewBox="0 0 22 22" fill="none" xmlns="http://www.w3.org/2000/svg">
<g opacity="0.5">
<path d="M11 3.66666C8.97496 3.66666 7.33333 5.30828 7.33333 7.33333C7.33333 9.35837 8.97496 11 11 11C13.025 11 14.6667 9.35837 14.6667 7.33333C14.6667 5.30828 13.025 3.66666 11 3.66666ZM5.5 7.33333C5.5 4.29576 7.96243 1.83333 11 1.83333C14.0376 1.83333 16.5 4.29576 16.5 7.33333C16.5 10.3709 14.0376 12.8333 11 12.8333C7.96243 12.8333 5.5 10.3709 5.5 7.33333ZM7.33333 16.5C5.81455 16.5 4.58333 17.7312 4.58333 19.25C4.58333 19.7563 4.17293 20.1667 3.66667 20.1667C3.16041 20.1667 2.75 19.7563 2.75 19.25C2.75 16.7187 4.80203 14.6667 7.33333 14.6667H14.6667C17.198 14.6667 19.25 16.7187 19.25 19.25C19.25 19.7563 18.8396 20.1667 18.3333 20.1667C17.8271 20.1667 17.4167 19.7563 17.4167 19.25C17.4167 17.7312 16.1854 16.5 14.6667 16.5H7.33333Z" fill="white"/>
</g>
</svg>
