<svg width="16" height="16" viewBox="0 0 16 16" fill="none" xmlns="http://www.w3.org/2000/svg">
<g opacity="0.5">
<path d="M2.66666 4.66661C2.66666 4.29842 2.96513 3.99994 3.33332 3.99994H3.99999C4.36818 3.99994 4.66666 4.29842 4.66666 4.66661C4.66666 5.0348 4.36818 5.33327 3.99999 5.33327H3.33332C2.96513 5.33327 2.66666 5.0348 2.66666 4.66661ZM5.99999 4.66661C5.99999 4.29842 6.29847 3.99994 6.66666 3.99994H12.6667C13.0348 3.99994 13.3333 4.29842 13.3333 4.66661C13.3333 5.0348 13.0348 5.33327 12.6667 5.33327H6.66666C6.29847 5.33327 5.99999 5.0348 5.99999 4.66661ZM2.66666 7.99994C2.66666 7.63175 2.96513 7.33327 3.33332 7.33327H3.99999C4.36818 7.33327 4.66666 7.63175 4.66666 7.99994C4.66666 8.36813 4.36818 8.66661 3.99999 8.66661H3.33332C2.96513 8.66661 2.66666 8.36813 2.66666 7.99994ZM5.99999 7.99994C5.99999 7.63175 6.29847 7.33327 6.66666 7.33327H12.6667C13.0348 7.33327 13.3333 7.63175 13.3333 7.99994C13.3333 8.36813 13.0348 8.66661 12.6667 8.66661H6.66666C6.29847 8.66661 5.99999 8.36813 5.99999 7.99994ZM2.66666 11.3333C2.66666 10.9651 2.96513 10.6666 3.33332 10.6666H3.99999C4.36818 10.6666 4.66666 10.9651 4.66666 11.3333C4.66666 11.7015 4.36818 11.9999 3.99999 11.9999H3.33332C2.96513 11.9999 2.66666 11.7015 2.66666 11.3333ZM5.99999 11.3333C5.99999 10.9651 6.29847 10.6666 6.66666 10.6666H12.6667C13.0348 10.6666 13.3333 10.9651 13.3333 11.3333C13.3333 11.7015 13.0348 11.9999 12.6667 11.9999H6.66666C6.29847 11.9999 5.99999 11.7015 5.99999 11.3333Z" fill="#1C1D22"/>
</g>
</svg>
