<svg width="20" height="20" viewBox="0 0 20 20" fill="none" xmlns="http://www.w3.org/2000/svg">
<g opacity="0.5">
<path d="M7.80064 2.7441C8.05491 2.99837 8.11741 3.38706 7.95565 3.70821C7.5339 4.54559 7.29601 5.49197 7.29601 6.49632C7.29601 9.92474 10.0753 12.704 13.5037 12.704C14.508 12.704 15.4544 12.4661 16.2918 12.0444C16.613 11.8826 17.0017 11.9451 17.2559 12.1994C17.5102 12.4536 17.5727 12.8423 17.4109 13.1635C16.1163 15.7339 13.4524 17.5 10.3744 17.5C6.02547 17.5 2.5 13.9746 2.5 9.62567C2.5 6.54767 4.26617 3.88368 6.83653 2.58909C7.15769 2.42734 7.54638 2.48983 7.80064 2.7441ZM5.68475 5.55802C4.73864 6.64786 4.16667 8.07027 4.16667 9.62567C4.16667 13.0541 6.94594 15.8334 10.3744 15.8334C11.9298 15.8334 13.3522 15.2614 14.442 14.3153C14.1342 14.3519 13.8211 14.3707 13.5037 14.3707C9.15481 14.3707 5.62934 10.8452 5.62934 6.49632C5.62934 6.17895 5.64816 5.86581 5.68475 5.55802Z" fill="#1C1D22"/>
</g>
</svg>
