<svg width="22" height="22" viewBox="0 0 22 22" fill="none" xmlns="http://www.w3.org/2000/svg">
<path d="M2.75 4.58333C2.75 3.57081 3.57081 2.75 4.58333 2.75H8.25C9.26252 2.75 10.0833 3.57081 10.0833 4.58333V8.25C10.0833 9.26252 9.26252 10.0833 8.25 10.0833H4.58333C3.57081 10.0833 2.75 9.26252 2.75 8.25V4.58333ZM8.25 4.58333H4.58333V8.25H8.25V4.58333ZM11.9167 4.58333C11.9167 3.57081 12.7375 2.75 13.75 2.75H17.4167C18.4292 2.75 19.25 3.57081 19.25 4.58333V8.25C19.25 9.26252 18.4292 10.0833 17.4167 10.0833H13.75C12.7375 10.0833 11.9167 9.26252 11.9167 8.25V4.58333ZM17.4167 4.58333H13.75V8.25H17.4167V4.58333ZM2.75 13.75C2.75 12.7375 3.57081 11.9167 4.58333 11.9167H8.25C9.26252 11.9167 10.0833 12.7375 10.0833 13.75V17.4167C10.0833 18.4292 9.26252 19.25 8.25 19.25H4.58333C3.57081 19.25 2.75 18.4292 2.75 17.4167V13.75ZM8.25 13.75H4.58333V17.4167H8.25V13.75ZM11.9167 13.75C11.9167 12.7375 12.7375 11.9167 13.75 11.9167H17.4167C18.4292 11.9167 19.25 12.7375 19.25 13.75V17.4167C19.25 18.4292 18.4292 19.25 17.4167 19.25H13.75C12.7375 19.25 11.9167 18.4292 11.9167 17.4167V13.75ZM17.4167 13.75H13.75V17.4167H17.4167V13.75Z" fill="white"/>
</svg>
